<svg id="visual" viewBox="0 0 900 600" width="900" height="600" xmlns="http://www.w3.org/2000/svg" xmlns:xlink="http://www.w3.org/1999/xlink" version="1.1"><g stroke-width="1" stroke-linejoin="bevel"><path d="M392 283L417 226L323 231Z" fill="#277297" stroke="#277297"></path><path d="M323 231L328 319L392 283Z" fill="#15384f" stroke="#15384f"></path><path d="M417 226L429 115L323 231Z" fill="#081a28" stroke="#081a28"></path><path d="M169 264L316 367L328 319Z" fill="#277297" stroke="#277297"></path><path d="M412 403L469 363L392 283Z" fill="#081a28" stroke="#081a28"></path><path d="M469 363L515 289L392 283Z" fill="#081a28" stroke="#081a28"></path><path d="M392 283L515 289L417 226Z" fill="#15384f" stroke="#15384f"></path><path d="M417 226L526 171L429 115Z" fill="#1d4e6b" stroke="#1d4e6b"></path><path d="M412 403L392 283L328 319Z" fill="#112e42" stroke="#112e42"></path><path d="M316 367L412 403L328 319Z" fill="#205a7a" stroke="#205a7a"></path><path d="M515 289L526 171L417 226Z" fill="#1d4e6b" stroke="#1d4e6b"></path><path d="M429 115L302 64L323 231Z" fill="#0c2435" stroke="#0c2435"></path><path d="M323 231L169 264L328 319Z" fill="#1d4e6b" stroke="#1d4e6b"></path><path d="M526 171L504 101L429 115Z" fill="#081a28" stroke="#081a28"></path><path d="M429 115L439 0L302 64Z" fill="#205a7a" stroke="#205a7a"></path><path d="M174 174L169 264L323 231Z" fill="#246688" stroke="#246688"></path><path d="M302 64L174 174L323 231Z" fill="#297ea6" stroke="#297ea6"></path><path d="M515 289L568 176L526 171Z" fill="#081a28" stroke="#081a28"></path><path d="M526 171L568 176L504 101Z" fill="#246688" stroke="#246688"></path><path d="M469 363L565 334L515 289Z" fill="#081a28" stroke="#081a28"></path><path d="M515 289L565 334L568 176Z" fill="#205a7a" stroke="#205a7a"></path><path d="M568 416L565 334L469 363Z" fill="#00101c" stroke="#00101c"></path><path d="M302 64L178 96L174 174Z" fill="#112e42" stroke="#112e42"></path><path d="M88 173L123 325L169 264Z" fill="#297ea6" stroke="#297ea6"></path><path d="M169 264L196 412L316 367Z" fill="#1d4e6b" stroke="#1d4e6b"></path><path d="M316 367L319 495L412 403Z" fill="#0c2435" stroke="#0c2435"></path><path d="M515 0L439 0L504 101Z" fill="#15384f" stroke="#15384f"></path><path d="M504 101L439 0L429 115Z" fill="#112e42" stroke="#112e42"></path><path d="M302 64L203 0L178 96Z" fill="#277297" stroke="#277297"></path><path d="M439 0L288 0L302 64Z" fill="#277297" stroke="#277297"></path><path d="M196 412L319 495L316 367Z" fill="#15384f" stroke="#15384f"></path><path d="M412 403L568 416L469 363Z" fill="#081a28" stroke="#081a28"></path><path d="M88 173L169 264L174 174Z" fill="#19435d" stroke="#19435d"></path><path d="M169 264L123 325L196 412Z" fill="#19435d" stroke="#19435d"></path><path d="M462 537L568 416L412 403Z" fill="#1d4e6b" stroke="#1d4e6b"></path><path d="M703 201L619 93L568 176Z" fill="#297ea6" stroke="#297ea6"></path><path d="M565 0L515 0L504 101Z" fill="#112e42" stroke="#112e42"></path><path d="M703 201L568 176L565 334Z" fill="#1d4e6b" stroke="#1d4e6b"></path><path d="M568 176L619 93L504 101Z" fill="#246688" stroke="#246688"></path><path d="M63 136L88 173L178 96Z" fill="#19435d" stroke="#19435d"></path><path d="M178 96L88 173L174 174Z" fill="#00101c" stroke="#00101c"></path><path d="M288 0L203 0L302 64Z" fill="#15384f" stroke="#15384f"></path><path d="M319 495L390 537L412 403Z" fill="#277297" stroke="#277297"></path><path d="M619 93L565 0L504 101Z" fill="#277297" stroke="#277297"></path><path d="M390 537L462 537L412 403Z" fill="#246688" stroke="#246688"></path><path d="M97 0L63 136L178 96Z" fill="#1d4e6b" stroke="#1d4e6b"></path><path d="M0 401L77 439L123 325Z" fill="#1d4e6b" stroke="#1d4e6b"></path><path d="M725 263L703 201L565 334Z" fill="#00101c" stroke="#00101c"></path><path d="M619 93L663 0L565 0Z" fill="#1d4e6b" stroke="#1d4e6b"></path><path d="M196 412L161 527L319 495Z" fill="#0c2435" stroke="#0c2435"></path><path d="M302 600L424 600L390 537Z" fill="#112e42" stroke="#112e42"></path><path d="M77 439L139 508L196 412Z" fill="#00101c" stroke="#00101c"></path><path d="M77 439L196 412L123 325Z" fill="#297ea6" stroke="#297ea6"></path><path d="M639 516L664 439L568 416Z" fill="#0c2435" stroke="#0c2435"></path><path d="M568 416L664 439L565 334Z" fill="#297ea6" stroke="#297ea6"></path><path d="M0 237L123 325L88 173Z" fill="#19435d" stroke="#19435d"></path><path d="M664 439L725 263L565 334Z" fill="#112e42" stroke="#112e42"></path><path d="M139 508L161 527L196 412Z" fill="#297ea6" stroke="#297ea6"></path><path d="M203 0L97 0L178 96Z" fill="#205a7a" stroke="#205a7a"></path><path d="M390 537L424 600L462 537Z" fill="#15384f" stroke="#15384f"></path><path d="M462 537L639 516L568 416Z" fill="#297ea6" stroke="#297ea6"></path><path d="M302 600L390 537L319 495Z" fill="#15384f" stroke="#15384f"></path><path d="M199 600L302 600L319 495Z" fill="#112e42" stroke="#112e42"></path><path d="M775 79L719 120L839 160Z" fill="#19435d" stroke="#19435d"></path><path d="M703 201L719 120L619 93Z" fill="#15384f" stroke="#15384f"></path><path d="M0 97L0 237L63 136Z" fill="#15384f" stroke="#15384f"></path><path d="M63 136L0 237L88 173Z" fill="#112e42" stroke="#112e42"></path><path d="M719 120L663 0L619 93Z" fill="#19435d" stroke="#19435d"></path><path d="M0 237L0 329L123 325Z" fill="#0c2435" stroke="#0c2435"></path><path d="M531 600L639 516L462 537Z" fill="#277297" stroke="#277297"></path><path d="M800 419L826 332L725 263Z" fill="#081a28" stroke="#081a28"></path><path d="M424 600L531 600L462 537Z" fill="#0c2435" stroke="#0c2435"></path><path d="M97 0L0 97L63 136Z" fill="#112e42" stroke="#112e42"></path><path d="M67 600L199 600L161 527Z" fill="#112e42" stroke="#112e42"></path><path d="M161 527L199 600L319 495Z" fill="#277297" stroke="#277297"></path><path d="M67 600L161 527L139 508Z" fill="#297ea6" stroke="#297ea6"></path><path d="M0 329L0 401L123 325Z" fill="#081a28" stroke="#081a28"></path><path d="M77 439L0 499L139 508Z" fill="#00101c" stroke="#00101c"></path><path d="M531 600L607 600L639 516Z" fill="#1d4e6b" stroke="#1d4e6b"></path><path d="M839 160L719 120L703 201Z" fill="#19435d" stroke="#19435d"></path><path d="M719 120L775 79L663 0Z" fill="#297ea6" stroke="#297ea6"></path><path d="M97 0L0 0L0 97Z" fill="#205a7a" stroke="#205a7a"></path><path d="M708 600L722 507L639 516Z" fill="#205a7a" stroke="#205a7a"></path><path d="M639 516L722 507L664 439Z" fill="#1d4e6b" stroke="#1d4e6b"></path><path d="M725 263L839 160L703 201Z" fill="#246688" stroke="#246688"></path><path d="M0 401L0 499L77 439Z" fill="#246688" stroke="#246688"></path><path d="M800 419L725 263L664 439Z" fill="#00101c" stroke="#00101c"></path><path d="M722 507L800 419L664 439Z" fill="#00101c" stroke="#00101c"></path><path d="M0 499L67 600L139 508Z" fill="#15384f" stroke="#15384f"></path><path d="M826 332L839 160L725 263Z" fill="#112e42" stroke="#112e42"></path><path d="M607 600L708 600L639 516Z" fill="#15384f" stroke="#15384f"></path><path d="M722 507L786 507L800 419Z" fill="#15384f" stroke="#15384f"></path><path d="M779 600L786 507L722 507Z" fill="#246688" stroke="#246688"></path><path d="M900 429L900 299L826 332Z" fill="#081a28" stroke="#081a28"></path><path d="M900 76L822 0L775 79Z" fill="#205a7a" stroke="#205a7a"></path><path d="M775 79L822 0L663 0Z" fill="#00101c" stroke="#00101c"></path><path d="M0 499L0 600L67 600Z" fill="#0c2435" stroke="#0c2435"></path><path d="M826 332L900 299L839 160Z" fill="#277297" stroke="#277297"></path><path d="M839 160L900 76L775 79Z" fill="#19435d" stroke="#19435d"></path><path d="M900 429L826 332L800 419Z" fill="#297ea6" stroke="#297ea6"></path><path d="M900 299L900 174L839 160Z" fill="#1d4e6b" stroke="#1d4e6b"></path><path d="M708 600L779 600L722 507Z" fill="#19435d" stroke="#19435d"></path><path d="M900 494L900 429L800 419Z" fill="#15384f" stroke="#15384f"></path><path d="M900 174L900 76L839 160Z" fill="#0c2435" stroke="#0c2435"></path><path d="M900 494L800 419L786 507Z" fill="#081a28" stroke="#081a28"></path><path d="M900 76L900 0L822 0Z" fill="#112e42" stroke="#112e42"></path><path d="M900 600L900 494L786 507Z" fill="#081a28" stroke="#081a28"></path><path d="M779 600L900 600L786 507Z" fill="#0c2435" stroke="#0c2435"></path></g></svg>