<?xml version="1.0" encoding="UTF-8" standalone="no"?>
<svg
   version="1.1"
   x="0px"
   y="0px"
   viewBox="0 0 100 100"
   enable-background="new 0 0 100 100"
   xml:space="preserve"
   id="svg2"
   sodipodi:docname="local.svg"
   width="100"
   height="100"
   inkscape:export-filename="../Desktop/local/src-tauri/icons/local-256x256.png"
   inkscape:export-xdpi="245.75999"
   inkscape:export-ydpi="245.75999"
   inkscape:version="1.3.1 (1:1.3.1+202311172155+91b66b0783)"
   xmlns:inkscape="http://www.inkscape.org/namespaces/inkscape"
   xmlns:sodipodi="http://sodipodi.sourceforge.net/DTD/sodipodi-0.dtd"
   xmlns="http://www.w3.org/2000/svg"
   xmlns:svg="http://www.w3.org/2000/svg"><defs
     id="defs2" /><sodipodi:namedview
     id="namedview2"
     pagecolor="#505050"
     bordercolor="#eeeeee"
     borderopacity="1"
     inkscape:showpageshadow="0"
     inkscape:pageopacity="0"
     inkscape:pagecheckerboard="0"
     inkscape:deskcolor="#505050"
     inkscape:zoom="6.52"
     inkscape:cx="50"
     inkscape:cy="51.610429"
     inkscape:window-width="1920"
     inkscape:window-height="1012"
     inkscape:window-x="0"
     inkscape:window-y="40"
     inkscape:window-maximized="1"
     inkscape:current-layer="svg2" /><path
     d="M 95.838,5.686 C 94.9,4.602 93.492,4.036 92.067,4.178 l -17.98,1.761 c -3.78,0.055 -7.093,1.436 -9.603,4.003 -3.862,3.958 -4.903,9.739 -5.174,13.031 -0.559,-0.091 -1.107,-0.208 -1.672,-0.286 -0.799,-0.11 -1.604,-0.195 -2.385,-0.258 -1.123,-0.086 -2.277,-0.133 -3.427,-0.133 -2.638,0 -5.201,0.249 -7.709,0.637 C 43.841,19.636 42.794,13.885 38.947,9.943 36.438,7.376 33.125,5.994 29.344,5.94 L 11.367,4.178 C 9.942,4.04 8.534,4.598 7.596,5.686 6.662,6.771 6.312,8.243 6.657,9.636 c 0.804,3.222 4.16,8.897 11.633,9.728 0.642,0.073 1.295,0 1.907,-0.207 0.019,-0.008 1.967,-0.635 4.287,-0.635 3.226,0 6.521,0.977 7.211,7.338 -0.823,0.237 -1.638,0.478 -2.453,0.717 -2.417,0.718 -4.92,1.454 -7.364,2.078 -4.571,1.162 -7.721,5.744 -7.171,10.43 l 3.507,29.788 c 0.405,3.441 2.684,7.208 5.547,9.165 l 22.008,15.019 c 1.678,1.146 3.804,1.776 5.985,1.776 2.183,0 4.31,-0.631 5.986,-1.776 L 79.749,78.038 c 2.865,-1.955 5.147,-5.724 5.549,-9.165 2.647,-22.483 3.316,-28.191 3.488,-29.788 h 0.017 C 89.871,30.004 80.02,27.894 76.31,27.101 75.713,26.973 75.098,26.843 74.764,26.745 l -0.518,-0.148 c -0.832,-0.237 -1.673,-0.475 -2.51,-0.712 0.686,-6.383 3.982,-7.363 7.214,-7.363 2.326,0 4.284,0.635 4.284,0.635 0.616,0.207 1.266,0.28 1.907,0.207 7.47,-0.83 10.826,-6.506 11.636,-9.728 0.345,-1.393 -0.005,-2.865 -0.939,-3.95 z M 76.642,39.554 c -0.739,6.261 -3.086,26.214 -3.272,27.814 -0.078,0.226 -0.315,0.621 -0.483,0.795 L 51.755,82.583 30.625,68.165 C 30.458,67.991 30.22,67.598 30.144,67.368 L 26.896,39.764 c 1.953,-0.531 3.877,-1.098 5.752,-1.651 6.609,-1.951 12.854,-3.792 19.181,-3.792 0.837,0 1.667,0.031 2.479,0.096 0.561,0.044 1.136,0.105 1.696,0.184 4.932,0.681 9.783,2.075 14.919,3.55 l 0.521,0.151 c 0.734,0.211 1.519,0.378 2.351,0.556 0.705,0.151 1.912,0.411 2.847,0.696 z"
     id="path1"
     style="fill:#ffff00" /></svg>
